<svg width="292" height="87" viewBox="0 0 292 87" fill="none" xmlns="http://www.w3.org/2000/svg">
<path d="M86.75 46.85C86.75 44.9167 87.1 43.1667 87.8 41.6C88.5 40.0333 89.45 38.7 90.65 37.6C91.8833 36.4667 93.3167 35.6 94.95 35C96.6167 34.4 98.3833 34.1 100.25 34.1C102.117 34.1 103.867 34.4 105.5 35C107.167 35.6 108.6 36.4667 109.8 37.6C111.033 38.7 112 40.0333 112.7 41.6C113.4 43.1667 113.75 44.9167 113.75 46.85C113.75 48.7833 113.4 50.5333 112.7 52.1C112 53.6667 111.033 55.0167 109.8 56.15C108.6 57.25 107.167 58.1 105.5 58.7C103.867 59.3 102.117 59.6 100.25 59.6C98.3833 59.6 96.6167 59.3 94.95 58.7C93.3167 58.1 91.8833 57.25 90.65 56.15C89.45 55.0167 88.5 53.6667 87.8 52.1C87.1 50.5333 86.75 48.7833 86.75 46.85ZM94.25 46.85C94.25 48.6833 94.7667 50.1667 95.8 51.3C96.8667 52.4333 98.35 53 100.25 53C102.15 53 103.617 52.4333 104.65 51.3C105.717 50.1667 106.25 48.6833 106.25 46.85C106.25 45.0167 105.717 43.5333 104.65 42.4C103.617 41.2667 102.15 40.7 100.25 40.7C98.35 40.7 96.8667 41.2667 95.8 42.4C94.7667 43.5333 94.25 45.0167 94.25 46.85ZM118.168 34.7H125.368V38H125.468C125.701 37.5333 126.034 37.0667 126.468 36.6C126.901 36.1333 127.418 35.7167 128.018 35.35C128.618 34.9833 129.301 34.6833 130.068 34.45C130.834 34.2167 131.668 34.1 132.568 34.1C134.468 34.1 136.001 34.4 137.168 35C138.334 35.5667 139.234 36.3667 139.868 37.4C140.534 38.4333 140.984 39.65 141.218 41.05C141.451 42.45 141.568 43.9667 141.568 45.6V59H134.068V47.1C134.068 46.4 134.034 45.6833 133.968 44.95C133.934 44.1833 133.784 43.4833 133.518 42.85C133.284 42.2167 132.901 41.7 132.368 41.3C131.868 40.9 131.134 40.7 130.168 40.7C129.201 40.7 128.418 40.8833 127.818 41.25C127.218 41.5833 126.751 42.05 126.418 42.65C126.118 43.2167 125.918 43.8667 125.818 44.6C125.718 45.3333 125.668 46.1 125.668 46.9V59H118.168V34.7ZM147.829 23.6H159.629L167.779 46.7H167.879L176.079 23.6H187.829V59H180.029V31.85H179.929L170.629 59H164.679L155.729 31.85H155.629V59H147.829V23.6ZM193.195 46.85C193.195 44.9167 193.545 43.1667 194.245 41.6C194.945 40.0333 195.895 38.7 197.095 37.6C198.329 36.4667 199.762 35.6 201.395 35C203.062 34.4 204.829 34.1 206.695 34.1C208.562 34.1 210.312 34.4 211.945 35C213.612 35.6 215.045 36.4667 216.245 37.6C217.479 38.7 218.445 40.0333 219.145 41.6C219.845 43.1667 220.195 44.9167 220.195 46.85C220.195 48.7833 219.845 50.5333 219.145 52.1C218.445 53.6667 217.479 55.0167 216.245 56.15C215.045 57.25 213.612 58.1 211.945 58.7C210.312 59.3 208.562 59.6 206.695 59.6C204.829 59.6 203.062 59.3 201.395 58.7C199.762 58.1 198.329 57.25 197.095 56.15C195.895 55.0167 194.945 53.6667 194.245 52.1C193.545 50.5333 193.195 48.7833 193.195 46.85ZM200.695 46.85C200.695 48.6833 201.212 50.1667 202.245 51.3C203.312 52.4333 204.795 53 206.695 53C208.595 53 210.062 52.4333 211.095 51.3C212.162 50.1667 212.695 48.6833 212.695 46.85C212.695 45.0167 212.162 43.5333 211.095 42.4C210.062 41.2667 208.595 40.7 206.695 40.7C204.795 40.7 203.312 41.2667 202.245 42.4C201.212 43.5333 200.695 45.0167 200.695 46.85ZM222.063 34.7H230.163L236.313 51.2H236.413L242.113 34.7H249.663L240.063 59H232.113L222.063 34.7ZM252.496 34.7H259.996V59H252.496V34.7ZM251.896 27.05C251.896 25.85 252.313 24.8333 253.146 24C254.013 23.1333 255.046 22.7 256.246 22.7C257.446 22.7 258.463 23.1333 259.296 24C260.163 24.8333 260.596 25.85 260.596 27.05C260.596 28.25 260.163 29.2833 259.296 30.15C258.463 30.9833 257.446 31.4 256.246 31.4C255.046 31.4 254.013 30.9833 253.146 30.15C252.313 29.2833 251.896 28.25 251.896 27.05ZM288.384 54.8C287.184 56.3333 285.668 57.5167 283.834 58.35C282.001 59.1833 280.101 59.6 278.134 59.6C276.268 59.6 274.501 59.3 272.834 58.7C271.201 58.1 269.768 57.25 268.534 56.15C267.334 55.0167 266.384 53.6667 265.684 52.1C264.984 50.5333 264.634 48.7833 264.634 46.85C264.634 44.9167 264.984 43.1667 265.684 41.6C266.384 40.0333 267.334 38.7 268.534 37.6C269.768 36.4667 271.201 35.6 272.834 35C274.501 34.4 276.268 34.1 278.134 34.1C279.868 34.1 281.434 34.4 282.834 35C284.268 35.6 285.468 36.4667 286.434 37.6C287.434 38.7 288.201 40.0333 288.734 41.6C289.268 43.1667 289.534 44.9167 289.534 46.85V49.2H272.134C272.434 50.6333 273.084 51.7833 274.084 52.65C275.084 53.4833 276.318 53.9 277.784 53.9C279.018 53.9 280.051 53.6333 280.884 53.1C281.751 52.5333 282.501 51.8167 283.134 50.95L288.384 54.8ZM282.034 44.1C282.068 42.8333 281.651 41.75 280.784 40.85C279.918 39.95 278.801 39.5 277.434 39.5C276.601 39.5 275.868 39.6333 275.234 39.9C274.601 40.1667 274.051 40.5167 273.584 40.95C273.151 41.35 272.801 41.8333 272.534 42.4C272.301 42.9333 272.168 43.5 272.134 44.1H282.034Z" fill="white"/>
<path fill-rule="evenodd" clip-rule="evenodd" d="M73.8307 18.8565C73.2496 18.8577 72.687 19.0602 72.2385 19.4296C71.79 19.7991 71.4834 20.3125 71.371 20.8826C71.2585 21.4526 71.3471 22.044 71.6216 22.5561C71.8962 23.0682 72.3397 23.4693 72.8768 23.6911C73.4138 23.9129 74.0111 23.9417 74.567 23.7727C75.1229 23.6036 75.603 23.2471 75.9256 22.7638C76.2482 22.2805 76.3933 21.7004 76.3362 21.1222C76.2792 20.544 76.0235 20.0034 75.6127 19.5925C75.3787 19.3585 75.1009 19.173 74.7951 19.0467C74.4893 18.9204 74.1615 18.8558 73.8307 18.8565ZM6.08813 18.8565C5.50733 18.8589 4.94534 19.0626 4.49775 19.4327C4.05016 19.8028 3.74463 20.3166 3.63314 20.8866C3.52165 21.4566 3.61108 22.0476 3.88622 22.5591C4.16136 23.0706 4.6052 23.471 5.14226 23.6921C5.67931 23.9133 6.27639 23.9415 6.83192 23.7721C7.38746 23.6026 7.86712 23.2459 8.18931 22.7627C8.51151 22.2794 8.65633 21.6995 8.59914 21.1215C8.54195 20.5435 8.28628 20.0032 7.87563 19.5925C7.40043 19.1206 6.7578 18.856 6.08813 18.8565ZM39.9622 77.5176C39.3811 77.5188 38.8185 77.7214 38.37 78.0908C37.9215 78.4602 37.6149 78.9736 37.5025 79.5437C37.39 80.1137 37.4786 80.7052 37.7531 81.2172C38.0277 81.7293 38.4712 82.1304 39.0082 82.3522C39.5453 82.5741 40.1426 82.6029 40.6985 82.4338C41.2544 82.2647 41.7345 81.9082 42.0571 81.425C42.3797 80.9417 42.5248 80.3616 42.4677 79.7833C42.4107 79.2051 42.155 78.6645 41.7441 78.2536C41.2703 77.7831 40.6299 77.5186 39.9622 77.5176ZM47.2616 26.6872L44.1127 24.8665C43.635 25.4205 43.0421 25.8635 42.3754 26.1646C41.7087 26.4658 40.9843 26.6177 40.2528 26.6098C39.5213 26.6019 38.8003 26.4343 38.1403 26.1189C37.4803 25.8034 36.8971 25.3477 36.4314 24.7834L32.3362 27.1465L29.6688 28.685L25.9942 26.5654L30.4989 23.9644L35.2969 21.1974C35.3035 21.0674 35.3183 20.938 35.3412 20.81L23.0224 13.6932L12.0981 20.002C12.3072 20.9125 12.3072 21.8585 12.0981 22.769L35.059 36.0508C36.362 34.7575 38.1235 34.0317 39.9594 34.0317C41.7953 34.0317 43.5568 34.7575 44.8598 36.0508L54.1571 30.6828L47.2616 26.6872ZM24.4723 38.3087V45.503C24.6891 45.5692 24.9017 45.6487 25.1087 45.741H25.1585L25.5404 45.9623C26.5301 46.5303 27.2962 47.4193 27.7119 48.482C28.1275 49.5447 28.1677 50.7176 27.826 51.8063L32.3307 54.4018L34.4945 55.6525V59.9027L30.4878 57.5894L25.5072 54.7062C25.2959 54.8261 25.0757 54.9297 24.8486 55.0161V69.2331L35.7673 75.5087C36.45 74.8736 37.2672 74.4007 38.1581 74.1252C38.1524 74.0405 38.1524 73.9554 38.1581 73.8706V47.6336C36.6862 47.2348 35.3868 46.3622 34.4605 45.1509C33.5342 43.9395 33.0327 42.4568 33.0335 40.9319C33.0309 40.3301 33.1091 39.7308 33.2659 39.1499L24.4889 34.0807V38.3032L24.4723 38.3087ZM48.54 54.1251L51.7055 52.2988C51.5807 51.8464 51.5174 51.3792 51.5173 50.9098C51.5194 49.6821 51.9709 48.4976 52.7866 47.58C53.6022 46.6624 54.7256 46.0752 55.9446 45.9291V37.8771L56.0054 37.9877L59.6303 35.8959V46.9087L59.7243 46.9861L71.9436 39.9302L72.0266 39.8859V27.2627C71.1424 26.9887 70.3311 26.5197 69.6525 25.8903L59.6303 31.6734L55.9446 33.804L46.6861 39.1499C46.8429 39.7308 46.9211 40.3301 46.9185 40.9319C46.9187 42.4558 46.4176 43.9375 45.4926 45.1486C44.5675 46.3597 43.2698 47.2329 41.7995 47.6336V58.0045L48.551 54.1306L48.54 54.1251ZM17.5492 69.2276L15.8004 68.2204L15.6012 68.0875L5.31336 62.144C4.99473 61.9995 4.72479 61.7659 4.53621 61.4712C4.34763 61.1765 4.2485 60.8336 4.25082 60.4837V27.2793C3.37853 26.995 2.58077 26.5195 1.91581 25.8874C1.25085 25.2553 0.735487 24.4826 0.407376 23.6259C0.0792652 22.7691 -0.0533062 21.8499 0.0193424 20.9353C0.091991 20.0208 0.368025 19.134 0.827282 18.3398C1.28654 17.5455 1.91742 16.8639 2.67383 16.3448C3.43024 15.8256 4.29308 15.4819 5.1993 15.3389C6.10553 15.1959 7.03226 15.2572 7.91179 15.5182C8.79132 15.7792 9.60144 16.2334 10.283 16.8476L23.0113 9.49281L29.9898 13.5271L31.9046 14.634L37.1509 17.6611C37.2892 17.5559 37.4276 17.4508 37.577 17.3567L37.7707 17.2405C38.5173 16.8122 39.3611 16.5822 40.2217 16.5723C41.0824 16.5625 41.9312 16.7731 42.6874 17.1842C43.4436 17.5953 44.082 18.1932 44.5417 18.9209C45.0014 19.6485 45.2671 20.4818 45.3136 21.3413L49.0879 23.5217L57.804 28.5577L67.8041 22.7856C67.595 21.8751 67.595 20.9291 67.8041 20.0186L39.9622 3.91446L30.2997 9.49834L26.6638 7.40093L27.1785 7.10209L28.0805 6.58188L39.049 0.245375C39.3428 0.0748484 39.6785 -0.00984969 40.0179 0.000911582C40.3574 0.0116728 40.687 0.117462 40.9694 0.30625L69.6525 16.8476C70.3305 16.2188 71.1415 15.7508 72.0251 15.4782C72.9088 15.2057 73.8424 15.1356 74.7569 15.2731C75.6713 15.4107 76.5431 15.7524 77.3074 16.2729C78.0717 16.7934 78.7091 17.4793 79.1721 18.2797C79.6352 19.0802 79.9121 19.9746 79.9822 20.8966C80.0524 21.8187 79.9141 22.7447 79.5775 23.606C79.2409 24.4673 78.7146 25.2418 78.0379 25.8719C77.3611 26.5021 76.5511 26.9718 75.668 27.2461V41.9723L67.0846 46.9253L66.7803 47.1023L61.5395 50.1295C61.5774 50.386 61.5959 50.645 61.5949 50.9043C61.5971 51.7945 61.3628 52.6693 60.916 53.4393C60.4691 54.2092 59.8258 54.8466 59.0517 55.2863C58.2776 55.726 57.4007 55.9521 56.5105 55.9416C55.6203 55.931 54.749 55.6842 53.9855 55.2264L50.3939 57.3016L49.9235 57.5728L45.4354 60.1628L41.7995 62.2657V73.8873C41.8052 73.972 41.8052 74.0571 41.7995 74.1418C42.6903 74.4173 43.5075 74.8902 44.1902 75.5253L72.01 59.4599V48.2756L75.6514 46.1782V60.4837C75.6525 60.834 75.5523 61.1771 75.3628 61.4717C75.1733 61.7663 74.9026 61.9998 74.5833 62.144L45.9666 78.6631C46.0688 79.1135 46.1208 79.5738 46.1216 80.0356C46.1463 80.8604 46.0052 81.6817 45.7066 82.4509C45.4081 83.2202 44.9582 83.9216 44.3835 84.5138C43.8088 85.1059 43.1212 85.5767 42.3612 85.8981C41.6013 86.2196 40.7845 86.3852 39.9594 86.3852C39.1343 86.3852 38.3175 86.2196 37.5576 85.8981C36.7976 85.5767 36.11 85.1059 35.5353 84.5138C34.9607 83.9216 34.5107 83.2202 34.2122 82.4509C33.9136 81.6817 33.7725 80.8604 33.7972 80.0356C33.798 79.5738 33.85 79.1135 33.9522 78.6631L21.2238 71.3084V54.9995C20.9813 54.905 20.7463 54.7922 20.521 54.6619C19.4373 54.0388 18.6254 53.0334 18.2445 51.8427C17.8637 50.6521 17.9414 49.3621 18.4623 48.2258V48.176L18.6837 47.7886C19.1756 46.9312 19.9115 46.2396 20.7977 45.8018V36.1781V31.9722L10.283 25.8847C9.60432 26.5142 8.79298 26.9832 7.90884 27.2572V59.4599L17.5713 65.0383L17.5492 69.2276Z" fill="white"/>
</svg>
